<?xml version="1.0" encoding="UTF-8"?>
<svg width="1024" height="1024" viewBox="0 0 1024 1024" fill="none" xmlns="http://www.w3.org/2000/svg">
  <!-- Background gradient -->
  <defs>
    <linearGradient id="bg" x1="0" y1="0" x2="1024" y2="1024" gradientUnits="userSpaceOnUse">
      <stop offset="0%" stop-color="#007AFF"/>
      <stop offset="100%" stop-color="#34C759"/>
    </linearGradient>
    <!-- Inner shadow for depth -->
    <filter id="inner-shadow" x="-50%" y="-50%" width="200%" height="200%">
      <feGaussianBlur in="SourceAlpha" stdDeviation="3" result="blur"/>
      <feOffset dx="2" dy="2"/>
      <feComposite in2="SourceAlpha" operator="arithmetic" k2="-1" k3="1"/>
    </filter>
    
    <!-- Drop shadow for marker -->
    <filter id="drop-shadow" x="-20%" y="-20%" width="140%" height="140%">
      <feGaussianBlur in="SourceAlpha" stdDeviation="15"/>
      <feOffset dx="0" dy="10" result="offsetblur"/>
      <feFlood flood-color="rgba(0,0,0,0.5)"/>
      <feComposite in2="offsetblur" operator="in"/>
      <feMerge>
        <feMergeNode/>
        <feMergeNode in="SourceGraphic"/>
      </feMerge>
    </filter>
  </defs>

  <!-- Background with rounded corners -->
  <rect width="1024" height="1024" rx="256" fill="url(#bg)"/>

  <!-- Main location marker with shadow -->
  <g transform="translate(312, 212)" filter="url(#drop-shadow)">
    <path d="M200 0C89.6 0 0 89.6 0 200C0 311.2 200 500 200 500C200 500 400 311.2 400 200C400 89.6 310.4 0 200 0ZM200 270C161.6 270 130 238.4 130 200C130 161.6 161.6 130 200 130C238.4 130 270 161.6 270 200C270 238.4 238.4 270 200 270Z" 
          fill="#FF3B30"/>
  </g>

  <!-- DIGIPIN text -->
  <text x="512" y="850" 
        font-family="Arial-BoldMT, Arial" 
        font-weight="bold" 
        font-size="80" 
        fill="white" 
        text-anchor="middle" 
        opacity="0.9">
    DIGIPIN
  </text>
</svg> 